HIERARCHY
ROOT Hips
{
	OFFSET 0.000000 0.000000 0.000000 
	CHANNELS 6 Xposition Yposition Zposition Zrotation Yrotation Xrotation
	JOINT LeftUpLeg
	{
		OFFSET 1.363060 -1.794630 0.839290 
		CHANNELS 3 Zrotation Yrotation Xrotation
		JOINT LeftLeg
		{
			OFFSET 2.448110 -6.726130 0.000000 
			CHANNELS 3 Zrotation Yrotation Xrotation
			JOINT LeftFoot
			{
				OFFSET 2.562200 -7.039590 0.000000 
				CHANNELS 3 Zrotation Yrotation Xrotation
				JOINT LeftToeBase
				{
					OFFSET 0.157640 -0.433110 2.322550 
					CHANNELS 3 Zrotation Yrotation Xrotation
					End Site
					{
						OFFSET 0.000000 0.000000 0.000000 
					}
				}
			}
		}
	}
	JOINT RightUpLeg
	{
		OFFSET -1.305520 -1.794630 0.839290 
		CHANNELS 3 Zrotation Yrotation Xrotation
		JOINT RightLeg
		{
			OFFSET -2.542530 -6.985550 0.000000 
			CHANNELS 3 Zrotation Yrotation Xrotation
			JOINT RightFoot
			{
				OFFSET -2.568260 -7.056230 0.000000 
				CHANNELS 3 Zrotation Yrotation Xrotation
				JOINT RightToeBase
				{
					OFFSET -0.164730 -0.452590 2.363150 
					CHANNELS 3 Zrotation Yrotation Xrotation
					End Site
					{
						OFFSET 0.000000 0.000000 0.000000 
					}
				}
			}
		}
	}
	JOINT Spine
	{
		OFFSET 0.028270 2.035590 -0.193380 
		CHANNELS 3 Zrotation Yrotation Xrotation
		JOINT Spine1
		{
			OFFSET 0.056720 2.048850 -0.042750 
			CHANNELS 3 Zrotation Yrotation Xrotation
			JOINT Neck1
			{
				OFFSET -0.054170 1.746240 0.172020 
				CHANNELS 3 Zrotation Yrotation Xrotation
				JOINT Head
				{
					OFFSET 0.104070 1.761360 -0.123970 
					CHANNELS 3 Zrotation Yrotation Xrotation
					End Site
					{
						OFFSET 0.000000 0.000000 0.000000 
					}
				}
			}
			JOINT LeftArm
			{
				OFFSET 3.362410 1.200890 -0.311210 
				CHANNELS 3 Zrotation Yrotation Xrotation
				JOINT LeftForeArm
				{
					OFFSET 4.983000 -0.000000 -0.000000 
					CHANNELS 3 Zrotation Yrotation Xrotation
					JOINT LeftHand
					{
						OFFSET 3.483560 -0.000000 -0.000000 
						CHANNELS 3 Zrotation Yrotation Xrotation
						JOINT LeftHandIndex1
						{
							OFFSET 0.715260 -0.000000 -0.000000 
							CHANNELS 3 Zrotation Yrotation Xrotation
							End Site
							{
								OFFSET 0.000000 0.000000 0.000000 
							}
						}
					}
				}
			}
			JOINT RightArm
			{
				OFFSET -3.136600 1.374050 -0.404650 
				CHANNELS 3 Zrotation Yrotation Xrotation
				JOINT RightForeArm
				{
					OFFSET -5.241900 -0.000000 -0.000000 
					CHANNELS 3 Zrotation Yrotation Xrotation
					JOINT RightHand
					{
						OFFSET -3.444170 -0.000000 -0.000000 
						CHANNELS 3 Zrotation Yrotation Xrotation
						JOINT RightHandIndex1
						{
							OFFSET -0.622530 -0.000000 -0.000000 
							CHANNELS 3 Zrotation Yrotation Xrotation
							End Site
							{
								OFFSET 0.000000 0.000000 0.000000 
							}
						}
					}
				}
			}
		}
	}
}
MOTION
Frames: 13
Frame Time: 0.041667
-0.952637 17.933652 19.174070 -176.623412 -7.659149 -159.965158 -41.988578 -24.661852 -5.928078 3.759589 9.015551 29.009065 -1.161481 -20.117914 -41.039250 0.015300 -0.797800 -2.192600 14.604623 30.979741 -58.321186 -3.211892 -14.402334 32.229602 -3.286695 -5.201006 -34.274796 -0.694800 5.328500 -14.848000 4.459126 -2.089854 -4.792200 1.217167 -1.866920 19.511115 18.687084 -5.685608 18.701204 2.807400 -1.834100 2.869100 -103.820436 -0.859027 18.409984 17.566618 -18.140431 -2.670007 -0.434716 0.297359 1.835183 -7.125000 0.000000 0.000000 100.524472 -6.170258 5.203253 -19.967844 29.266136 -4.809522 0.077432 -0.417738 -1.726175 7.125000 0.000000 0.000000 
-0.929777 17.919773 19.105390 -176.466253 -7.844230 -160.171887 -41.881881 -24.385353 -5.425966 3.790509 8.972455 29.096120 -1.226141 -20.388088 -41.037072 0.005600 -0.482800 -1.326800 13.889079 31.261402 -58.348478 -3.061480 -13.968777 30.949882 -3.388644 -5.750959 -33.923093 -0.683900 5.287400 -14.730000 4.497980 -2.094868 -4.796310 1.246008 -1.882481 19.436137 19.241627 -6.352697 19.810918 2.928200 -2.056200 3.186900 -103.690598 -0.814047 18.445437 17.547119 -18.090805 -2.658750 -0.437841 0.304405 1.859031 -7.125000 0.000000 0.000000 100.665981 -6.457432 4.735379 -19.862477 29.147139 -4.764692 0.073676 -0.416243 -1.366856 7.125000 0.000000 0.000000 
-0.906000 17.907119 19.031506 -176.410299 -8.138857 -160.455088 -41.939760 -24.123301 -4.744937 3.827060 8.920559 29.168834 -1.149484 -20.389817 -41.172990 0.022500 -0.967900 -2.660400 13.266567 31.318535 -58.213830 -2.941723 -13.571864 29.773522 -3.507205 -6.415563 -33.415749 -0.835800 5.832000 -16.297700 4.513444 -2.134577 -4.778873 1.450376 -1.912327 19.671992 18.916695 -5.544563 17.679793 2.835700 -1.850100 2.573200 -103.571790 -0.840105 18.611930 17.656722 -18.269747 -2.704363 -0.439790 0.294471 1.465592 -7.125000 0.000000 0.000000 100.774135 -6.628189 4.423496 -19.716854 28.957696 -4.701950 0.077043 -0.422438 -1.048956 7.125000 0.000000 0.000000 
-0.880895 17.894363 18.959458 -176.225635 -8.462626 -160.714633 -41.770370 -23.860680 -4.226937 3.863650 8.899607 29.301574 -1.044036 -20.378738 -41.441474 0.081900 -1.846400 -5.081300 12.652687 31.624602 -57.981691 -2.816636 -13.153270 28.573345 -3.683101 -7.291852 -32.915839 -0.986000 6.320300 -17.716600 4.518119 -2.275520 -4.681560 1.305291 -1.975583 19.564720 19.672263 -6.643473 19.581067 3.017100 -2.201000 3.166900 -103.328928 -0.605050 18.918377 17.858301 -18.565816 -2.786652 -0.432335 0.267887 0.871732 -7.125000 0.000000 0.000000 100.924141 -6.738455 4.000507 -19.429896 28.624390 -4.575027 0.074124 -0.427973 -0.714908 7.125000 0.000000 0.000000 
-0.856097 17.881300 18.889554 -175.940615 -8.720425 -160.965374 -41.477217 -23.553889 -3.759051 3.896668 8.863258 29.406524 -1.012328 -20.532980 -41.655296 0.121000 -2.242900 -6.177400 12.148052 31.956650 -57.820647 -2.699908 -12.763359 27.473144 -3.829825 -8.061830 -32.201096 -1.156200 6.826900 -19.203400 4.511173 -2.299344 -4.772252 1.238287 -1.960368 19.522372 19.216986 -6.227473 19.243679 2.885700 -2.048600 2.990200 -103.106980 -0.426803 19.039278 17.994641 -18.757158 -2.841861 -0.423805 0.263613 0.761614 -7.125000 0.000000 0.000000 101.174453 -6.988373 3.361179 -19.240328 28.391712 -4.494785 0.076082 -0.434683 -0.432202 7.125000 0.000000 0.000000 
-0.828952 17.868136 18.818017 -175.612003 -8.936149 -161.202933 -41.142759 -23.292179 -3.284548 3.932721 8.818987 29.489170 -1.030590 -20.725274 -41.744630 0.123600 -2.266700 -6.243300 11.822702 32.198043 -57.672513 -2.586230 -12.380666 26.372116 -3.983322 -8.824333 -31.596194 -1.215200 6.992600 -19.693300 4.628924 -2.356570 -4.798100 1.262846 -1.971470 19.642114 19.010734 -5.748014 18.351200 2.845300 -1.904200 2.699400 -103.006455 -0.350483 19.054422 18.112935 -18.943179 -2.891483 -0.426588 0.263150 0.657531 -7.125000 0.000000 0.000000 101.264086 -7.163848 3.075714 -19.126297 28.238996 -4.445513 0.077712 -0.438525 -0.344895 7.125000 0.000000 0.000000 
-0.798643 17.853441 18.742602 -175.399160 -9.179241 -161.304008 -40.858295 -23.161387 -2.954078 3.962217 8.796715 29.608838 -1.167029 -21.090401 -41.646652 0.069400 -1.700100 -4.677500 11.186280 32.546761 -57.610711 -2.449936 -11.955820 25.157769 -4.234923 -9.977047 -31.341969 -1.133900 6.762800 -19.014500 4.704280 -2.451839 -4.797365 1.313827 -2.026663 19.811503 18.844456 -5.380686 18.129702 2.837600 -1.747500 2.632500 -102.855725 -0.342180 19.085056 18.238501 -19.133788 -2.940538 -0.424146 0.246954 0.436764 -7.125000 0.000000 0.000000 101.374981 -7.349531 3.002948 -19.167045 28.294023 -4.465735 0.075940 -0.435773 -0.366545 7.125000 0.000000 0.000000 
-0.766191 17.838746 18.669330 -175.251279 -9.349943 -161.381718 -40.572710 -22.940842 -2.669890 3.988890 8.765297 29.701327 -1.376799 -21.569002 -41.430152 0.008700 -0.602600 -1.655900 10.358445 32.964272 -57.729329 -2.324709 -11.621229 24.235478 -4.493893 -11.207862 -31.269020 -0.962200 6.245900 -17.499600 4.687950 -2.515348 -4.834252 1.298384 -2.074012 19.731265 19.263066 -6.331445 19.948389 2.877200 -2.049100 3.133400 -102.680496 -0.213671 19.033766 18.350387 -19.277632 -2.980727 -0.415358 0.242369 0.482026 -7.125000 0.000000 0.000000 101.569463 -7.711644 2.798268 -19.275168 28.458552 -4.519700 0.071491 -0.430846 -0.350371 7.125000 0.000000 0.000000 
-0.735066 17.825581 18.599936 -174.979446 -9.490343 -161.591165 -40.194414 -22.651104 -2.291293 4.026553 8.721679 29.803075 -1.604031 -22.077552 -41.178475 0.005300 0.471500 1.295600 9.909499 33.270935 -57.745760 -2.233541 -11.374469 23.557802 -4.673118 -12.120519 -31.164598 -0.815500 5.762300 -16.096300 4.855873 -2.570530 -4.900762 1.339382 -2.092194 19.662948 19.343769 -6.166541 19.517670 2.946300 -2.007300 3.025100 -102.627297 -0.049821 19.082633 18.470513 -19.468588 -3.035975 -0.418498 0.247576 0.584956 -7.125000 0.000000 0.000000 101.586302 -7.876535 2.439914 -19.108109 28.234345 -4.442082 0.071278 -0.432025 -0.166852 7.125000 0.000000 0.000000 
-0.704859 17.812825 18.528501 -174.761348 -9.676736 -161.821539 -39.895534 -22.371692 -1.868047 4.063400 8.682256 29.903713 -1.724257 -22.405275 -41.074444 0.007600 0.564000 1.549700 9.590230 33.453578 -57.594614 -2.147492 -11.083307 22.766339 -4.826048 -12.920971 -30.704578 -0.991200 6.336300 -17.763400 4.990864 -2.693640 -4.894427 1.340312 -2.148653 19.596552 19.345156 -6.212382 20.007591 2.979000 -1.993500 3.157300 -102.587295 0.111594 19.202326 18.648394 -19.738952 -3.115285 -0.418700 0.233938 0.391165 -7.125000 0.000000 0.000000 101.542916 -7.969105 2.137265 -18.920374 27.986954 -4.356796 0.071164 -0.435370 0.034248 7.125000 0.000000 0.000000 
-0.673836 17.800273 18.454719 -174.582122 -9.875532 -161.977482 -39.582914 -22.017554 -1.503631 4.095320 8.660128 29.991137 -1.584738 -22.308246 -41.383503 0.007900 -0.575300 -1.580900 9.047441 33.778863 -57.481138 -2.045802 -10.753934 21.893643 -5.007157 -13.886697 -30.461035 -0.995400 6.349600 -17.802100 5.037765 -2.788185 -4.853917 1.322481 -2.197399 19.605094 19.733489 -6.739132 20.668283 3.069200 -2.183600 3.379500 -102.428413 0.211846 19.319781 18.808554 -19.978888 -3.184792 -0.412937 0.224105 0.181785 -7.125000 0.000000 0.000000 101.552746 -8.143069 2.121186 -18.896369 27.961442 -4.346590 0.069679 -0.435059 0.012532 7.125000 0.000000 0.000000 
-0.642813 17.786496 18.378386 -174.457838 -10.088041 -162.082422 -39.345061 -21.760239 -1.160333 4.127284 8.658608 30.140000 -1.463717 -22.251925 -41.671677 0.027900 -1.078400 -2.964500 8.459564 34.019993 -57.421973 -1.961411 -10.486587 21.170792 -5.169188 -14.819306 -30.654007 -0.666900 5.222500 -14.544100 5.031166 -2.834747 -4.908305 1.418033 -2.224425 19.739312 19.482367 -6.560951 19.555566 2.955300 -2.197500 3.048000 -102.251540 0.300662 19.430483 18.942768 -20.176283 -3.244857 -0.409111 0.232743 0.392812 -7.125000 0.000000 0.000000 101.602834 -8.260457 1.976581 -18.836254 27.886849 -4.323656 0.072772 -0.440595 0.136303 7.125000 0.000000 0.000000 
-0.616484 17.761800 18.282255 -174.577136 -10.426311 -162.154253 -39.520275 -21.595294 -0.541190 4.140944 8.557742 30.090543 -1.634204 -22.705066 -41.451608 0.000000 0.013900 0.038200 8.044280 33.733692 -57.226611 -1.919164 -10.260072 20.498754 -5.294042 -15.520658 -30.791736 -0.458200 4.342500 -12.042200 4.843911 -2.965091 -4.908455 1.371474 -2.291477 20.015415 19.489427 -6.397374 19.327853 2.943900 -2.139000 2.961600 -102.039160 0.490472 19.571840 19.170149 -20.515193 -3.348078 -0.405150 0.233157 0.458529 -7.125000 0.000000 0.000000 101.809070 -8.355898 1.459667 -18.738954 27.778924 -4.287166 0.073201 -0.444641 0.547937 7.125000 0.000000 0.000000 
